<svg id="visual" viewBox="0 0 900 600" width="900" height="600" xmlns="http://www.w3.org/2000/svg" xmlns:xlink="http://www.w3.org/1999/xlink" version="1.1"><rect x="0" y="0" width="900" height="600" fill="#FFFFFF"></rect><defs><linearGradient id="grad1_0" x1="33.3%" y1="0%" x2="100%" y2="100%"><stop offset="20%" stop-color="#47b7c3" stop-opacity="1"></stop><stop offset="80%" stop-color="#47b7c3" stop-opacity="1"></stop></linearGradient></defs><defs><linearGradient id="grad1_1" x1="33.3%" y1="0%" x2="100%" y2="100%"><stop offset="20%" stop-color="#47b7c3" stop-opacity="1"></stop><stop offset="80%" stop-color="#69c1cb" stop-opacity="1"></stop></linearGradient></defs><defs><linearGradient id="grad1_2" x1="33.3%" y1="0%" x2="100%" y2="100%"><stop offset="20%" stop-color="#86ccd4" stop-opacity="1"></stop><stop offset="80%" stop-color="#69c1cb" stop-opacity="1"></stop></linearGradient></defs><defs><linearGradient id="grad1_3" x1="33.3%" y1="0%" x2="100%" y2="100%"><stop offset="20%" stop-color="#86ccd4" stop-opacity="1"></stop><stop offset="80%" stop-color="#a0d6dc" stop-opacity="1"></stop></linearGradient></defs><defs><linearGradient id="grad1_4" x1="33.3%" y1="0%" x2="100%" y2="100%"><stop offset="20%" stop-color="#b8e0e5" stop-opacity="1"></stop><stop offset="80%" stop-color="#a0d6dc" stop-opacity="1"></stop></linearGradient></defs><defs><linearGradient id="grad1_5" x1="33.3%" y1="0%" x2="100%" y2="100%"><stop offset="20%" stop-color="#b8e0e5" stop-opacity="1"></stop><stop offset="80%" stop-color="#d0eaee" stop-opacity="1"></stop></linearGradient></defs><defs><linearGradient id="grad1_6" x1="33.3%" y1="0%" x2="100%" y2="100%"><stop offset="20%" stop-color="#e8f5f6" stop-opacity="1"></stop><stop offset="80%" stop-color="#d0eaee" stop-opacity="1"></stop></linearGradient></defs><defs><linearGradient id="grad1_7" x1="33.3%" y1="0%" x2="100%" y2="100%"><stop offset="20%" stop-color="#e8f5f6" stop-opacity="1"></stop><stop offset="80%" stop-color="#ffffff" stop-opacity="1"></stop></linearGradient></defs><defs><linearGradient id="grad2_0" x1="0%" y1="0%" x2="66.7%" y2="100%"><stop offset="20%" stop-color="#47b7c3" stop-opacity="1"></stop><stop offset="80%" stop-color="#47b7c3" stop-opacity="1"></stop></linearGradient></defs><defs><linearGradient id="grad2_1" x1="0%" y1="0%" x2="66.7%" y2="100%"><stop offset="20%" stop-color="#69c1cb" stop-opacity="1"></stop><stop offset="80%" stop-color="#47b7c3" stop-opacity="1"></stop></linearGradient></defs><defs><linearGradient id="grad2_2" x1="0%" y1="0%" x2="66.7%" y2="100%"><stop offset="20%" stop-color="#69c1cb" stop-opacity="1"></stop><stop offset="80%" stop-color="#86ccd4" stop-opacity="1"></stop></linearGradient></defs><defs><linearGradient id="grad2_3" x1="0%" y1="0%" x2="66.7%" y2="100%"><stop offset="20%" stop-color="#a0d6dc" stop-opacity="1"></stop><stop offset="80%" stop-color="#86ccd4" stop-opacity="1"></stop></linearGradient></defs><defs><linearGradient id="grad2_4" x1="0%" y1="0%" x2="66.7%" y2="100%"><stop offset="20%" stop-color="#a0d6dc" stop-opacity="1"></stop><stop offset="80%" stop-color="#b8e0e5" stop-opacity="1"></stop></linearGradient></defs><defs><linearGradient id="grad2_5" x1="0%" y1="0%" x2="66.7%" y2="100%"><stop offset="20%" stop-color="#d0eaee" stop-opacity="1"></stop><stop offset="80%" stop-color="#b8e0e5" stop-opacity="1"></stop></linearGradient></defs><defs><linearGradient id="grad2_6" x1="0%" y1="0%" x2="66.7%" y2="100%"><stop offset="20%" stop-color="#d0eaee" stop-opacity="1"></stop><stop offset="80%" stop-color="#e8f5f6" stop-opacity="1"></stop></linearGradient></defs><defs><linearGradient id="grad2_7" x1="0%" y1="0%" x2="66.7%" y2="100%"><stop offset="20%" stop-color="#ffffff" stop-opacity="1"></stop><stop offset="80%" stop-color="#e8f5f6" stop-opacity="1"></stop></linearGradient></defs><g transform="translate(900, 0)"><path d="M0 297.5C-50.4 287.4 -100.8 277.3 -146.5 253.7C-192.2 230.2 -233.2 193.3 -257.6 148.7C-282 104.2 -289.7 52.1 -297.5 0L0 0Z" fill="#f3fafb"></path><path d="M0 260.3C-44.1 251.4 -88.2 242.6 -128.2 222C-168.2 201.4 -204.1 169.1 -225.4 130.1C-246.7 91.2 -253.5 45.6 -260.3 0L0 0Z" fill="#dcf0f2"></path><path d="M0 223.1C-37.8 215.5 -75.6 208 -109.9 190.3C-144.2 172.7 -174.9 144.9 -193.2 111.5C-211.5 78.1 -217.3 39.1 -223.1 0L0 0Z" fill="#c4e5e9"></path><path d="M0 185.9C-31.5 179.6 -63 173.3 -91.6 158.6C-120.1 143.9 -145.8 120.8 -161 93C-176.2 65.1 -181.1 32.6 -185.9 0L0 0Z" fill="#acdbe1"></path><path d="M0 148.7C-25.2 143.7 -50.4 138.6 -73.2 126.9C-96.1 115.1 -116.6 96.6 -128.8 74.4C-141 52.1 -144.9 26 -148.7 0L0 0Z" fill="#93d1d8"></path><path d="M0 111.5C-18.9 107.8 -37.8 104 -54.9 95.2C-72.1 86.3 -87.5 72.5 -96.6 55.8C-105.7 39.1 -108.6 19.5 -111.5 0L0 0Z" fill="#78c6d0"></path><path d="M0 74.4C-12.6 71.8 -25.2 69.3 -36.6 63.4C-48.1 57.6 -58.3 48.3 -64.4 37.2C-70.5 26 -72.4 13 -74.4 0L0 0Z" fill="#59bcc7"></path><path d="M0 37.2C-6.3 35.9 -12.6 34.7 -18.3 31.7C-24 28.8 -29.2 24.2 -32.2 18.6C-35.2 13 -36.2 6.5 -37.2 0L0 0Z" fill="#47b7c3"></path></g><g transform="translate(0, 600)"><path d="M0 -297.5C53.3 -290.4 106.5 -283.3 148.7 -257.6C190.9 -231.9 222.1 -187.5 245.1 -141.5C268 -95.5 282.7 -47.7 297.5 0L0 0Z" fill="#f3fafb"></path><path d="M0 -260.3C46.6 -254.1 93.2 -247.9 130.1 -225.4C167.1 -202.9 194.4 -164.1 214.4 -123.8C234.5 -83.5 247.4 -41.8 260.3 0L0 0Z" fill="#dcf0f2"></path><path d="M0 -223.1C39.9 -217.8 79.9 -212.5 111.5 -193.2C143.2 -173.9 166.6 -140.7 183.8 -106.1C201 -71.6 212.1 -35.8 223.1 0L0 0Z" fill="#c4e5e9"></path><path d="M0 -185.9C33.3 -181.5 66.6 -177.1 93 -161C119.3 -144.9 138.8 -117.2 153.2 -88.4C167.5 -59.7 176.7 -29.8 185.9 0L0 0Z" fill="#acdbe1"></path><path d="M0 -148.7C26.6 -145.2 53.3 -141.7 74.4 -128.8C95.5 -115.9 111.1 -93.8 122.5 -70.8C134 -47.7 141.4 -23.9 148.7 0L0 0Z" fill="#93d1d8"></path><path d="M0 -111.5C20 -108.9 39.9 -106.2 55.8 -96.6C71.6 -87 83.3 -70.3 91.9 -53.1C100.5 -35.8 106 -17.9 111.5 0L0 0Z" fill="#78c6d0"></path><path d="M0 -74.4C13.3 -72.6 26.6 -70.8 37.2 -64.4C47.7 -58 55.5 -46.9 61.3 -35.4C67 -23.9 70.7 -11.9 74.4 0L0 0Z" fill="#59bcc7"></path><path d="M0 -37.2C6.7 -36.3 13.3 -35.4 18.6 -32.2C23.9 -29 27.8 -23.4 30.6 -17.7C33.5 -11.9 35.3 -6 37.2 0L0 0Z" fill="#47b7c3"></path></g></svg>