<svg id="visual" viewBox="0 0 900 600" width="900" height="600" xmlns="http://www.w3.org/2000/svg" xmlns:xlink="http://www.w3.org/1999/xlink" version="1.1"><rect x="0" y="0" width="900" height="600" fill="#FFFFFF"></rect><defs><linearGradient id="grad1_0" x1="33.3%" y1="100%" x2="100%" y2="0%"><stop offset="20%" stop-color="#47b7c3" stop-opacity="1"></stop><stop offset="80%" stop-color="#47b7c3" stop-opacity="1"></stop></linearGradient></defs><defs><linearGradient id="grad1_1" x1="33.3%" y1="100%" x2="100%" y2="0%"><stop offset="20%" stop-color="#47b7c3" stop-opacity="1"></stop><stop offset="80%" stop-color="#69c1cb" stop-opacity="1"></stop></linearGradient></defs><defs><linearGradient id="grad1_2" x1="33.3%" y1="100%" x2="100%" y2="0%"><stop offset="20%" stop-color="#86ccd4" stop-opacity="1"></stop><stop offset="80%" stop-color="#69c1cb" stop-opacity="1"></stop></linearGradient></defs><defs><linearGradient id="grad1_3" x1="33.3%" y1="100%" x2="100%" y2="0%"><stop offset="20%" stop-color="#86ccd4" stop-opacity="1"></stop><stop offset="80%" stop-color="#a0d6dc" stop-opacity="1"></stop></linearGradient></defs><defs><linearGradient id="grad1_4" x1="33.3%" y1="100%" x2="100%" y2="0%"><stop offset="20%" stop-color="#b8e0e5" stop-opacity="1"></stop><stop offset="80%" stop-color="#a0d6dc" stop-opacity="1"></stop></linearGradient></defs><defs><linearGradient id="grad1_5" x1="33.3%" y1="100%" x2="100%" y2="0%"><stop offset="20%" stop-color="#b8e0e5" stop-opacity="1"></stop><stop offset="80%" stop-color="#d0eaee" stop-opacity="1"></stop></linearGradient></defs><defs><linearGradient id="grad1_6" x1="33.3%" y1="100%" x2="100%" y2="0%"><stop offset="20%" stop-color="#e8f5f6" stop-opacity="1"></stop><stop offset="80%" stop-color="#d0eaee" stop-opacity="1"></stop></linearGradient></defs><defs><linearGradient id="grad1_7" x1="33.3%" y1="100%" x2="100%" y2="0%"><stop offset="20%" stop-color="#e8f5f6" stop-opacity="1"></stop><stop offset="80%" stop-color="#ffffff" stop-opacity="1"></stop></linearGradient></defs><defs><linearGradient id="grad2_0" x1="0%" y1="100%" x2="66.7%" y2="0%"><stop offset="20%" stop-color="#47b7c3" stop-opacity="1"></stop><stop offset="80%" stop-color="#47b7c3" stop-opacity="1"></stop></linearGradient></defs><defs><linearGradient id="grad2_1" x1="0%" y1="100%" x2="66.7%" y2="0%"><stop offset="20%" stop-color="#69c1cb" stop-opacity="1"></stop><stop offset="80%" stop-color="#47b7c3" stop-opacity="1"></stop></linearGradient></defs><defs><linearGradient id="grad2_2" x1="0%" y1="100%" x2="66.7%" y2="0%"><stop offset="20%" stop-color="#69c1cb" stop-opacity="1"></stop><stop offset="80%" stop-color="#86ccd4" stop-opacity="1"></stop></linearGradient></defs><defs><linearGradient id="grad2_3" x1="0%" y1="100%" x2="66.7%" y2="0%"><stop offset="20%" stop-color="#a0d6dc" stop-opacity="1"></stop><stop offset="80%" stop-color="#86ccd4" stop-opacity="1"></stop></linearGradient></defs><defs><linearGradient id="grad2_4" x1="0%" y1="100%" x2="66.7%" y2="0%"><stop offset="20%" stop-color="#a0d6dc" stop-opacity="1"></stop><stop offset="80%" stop-color="#b8e0e5" stop-opacity="1"></stop></linearGradient></defs><defs><linearGradient id="grad2_5" x1="0%" y1="100%" x2="66.7%" y2="0%"><stop offset="20%" stop-color="#d0eaee" stop-opacity="1"></stop><stop offset="80%" stop-color="#b8e0e5" stop-opacity="1"></stop></linearGradient></defs><defs><linearGradient id="grad2_6" x1="0%" y1="100%" x2="66.7%" y2="0%"><stop offset="20%" stop-color="#d0eaee" stop-opacity="1"></stop><stop offset="80%" stop-color="#e8f5f6" stop-opacity="1"></stop></linearGradient></defs><defs><linearGradient id="grad2_7" x1="0%" y1="100%" x2="66.7%" y2="0%"><stop offset="20%" stop-color="#ffffff" stop-opacity="1"></stop><stop offset="80%" stop-color="#e8f5f6" stop-opacity="1"></stop></linearGradient></defs><g transform="translate(900, 600)"><path d="M-513.8 0C-497 -63 -480.1 -125.9 -458.2 -189.8C-436.4 -253.7 -409.4 -318.5 -363.3 -363.3C-317.2 -408.1 -252 -432.8 -188.3 -454.5C-124.5 -476.3 -62.3 -495 0 -513.8L0 0Z" fill="#f3fafb"></path><path d="M-449.6 0C-434.8 -55.1 -420.1 -110.2 -401 -166.1C-381.8 -222 -358.2 -278.7 -317.9 -317.9C-277.6 -357.1 -220.5 -378.7 -164.7 -397.7C-109 -416.8 -54.5 -433.2 0 -449.6L0 0Z" fill="#dcf0f2"></path><path d="M-385.3 0C-372.7 -47.2 -360.1 -94.4 -343.7 -142.4C-327.3 -190.3 -307 -238.9 -272.5 -272.5C-237.9 -306.1 -189 -324.6 -141.2 -340.9C-93.4 -357.2 -46.7 -371.3 0 -385.3L0 0Z" fill="#c4e5e9"></path><path d="M-321.1 0C-310.6 -39.3 -300.1 -78.7 -286.4 -118.6C-272.7 -158.6 -255.9 -199.1 -227.1 -227.1C-198.3 -255.1 -157.5 -270.5 -117.7 -284.1C-77.8 -297.7 -38.9 -309.4 0 -321.1L0 0Z" fill="#acdbe1"></path><path d="M-256.9 0C-248.5 -31.5 -240.1 -63 -229.1 -94.9C-218.2 -126.9 -204.7 -159.3 -181.7 -181.7C-158.6 -204 -126 -216.4 -94.1 -227.3C-62.3 -238.1 -31.1 -247.5 0 -256.9L0 0Z" fill="#93d1d8"></path><path d="M-192.7 0C-186.4 -23.6 -180.1 -47.2 -171.8 -71.2C-163.6 -95.1 -153.5 -119.4 -136.2 -136.2C-119 -153 -94.5 -162.3 -70.6 -170.5C-46.7 -178.6 -23.4 -185.6 0 -192.7L0 0Z" fill="#78c6d0"></path><path d="M-128.4 0C-124.2 -15.7 -120 -31.5 -114.6 -47.5C-109.1 -63.4 -102.3 -79.6 -90.8 -90.8C-79.3 -102 -63 -108.2 -47.1 -113.6C-31.1 -119.1 -15.6 -123.8 0 -128.4L0 0Z" fill="#59bcc7"></path><path d="M-64.2 0C-62.1 -7.9 -60 -15.7 -57.3 -23.7C-54.5 -31.7 -51.2 -39.8 -45.4 -45.4C-39.7 -51 -31.5 -54.1 -23.5 -56.8C-15.6 -59.5 -7.8 -61.9 0 -64.2L0 0Z" fill="#47b7c3"></path></g><g transform="translate(0, 0)"><path d="M513.8 0C498.4 63.5 483.1 127 461 191C439 254.9 410.3 319.3 363.3 363.3C316.3 407.3 251.1 431 187.5 452.7C123.9 474.4 62 494.1 0 513.8L0 0Z" fill="#f3fafb"></path><path d="M449.6 0C436.1 55.6 422.7 111.1 403.4 167.1C384.1 223 359 279.4 317.9 317.9C276.8 356.4 219.7 377.1 164.1 396.1C108.4 415.1 54.2 432.3 0 449.6L0 0Z" fill="#dcf0f2"></path><path d="M385.3 0C373.8 47.6 362.3 95.3 345.8 143.2C329.2 191.2 307.7 239.5 272.5 272.5C237.3 305.5 188.3 323.3 140.6 339.5C92.9 355.8 46.5 370.6 0 385.3L0 0Z" fill="#c4e5e9"></path><path d="M321.1 0C311.5 39.7 301.9 79.4 288.1 119.3C274.4 159.3 256.4 199.5 227.1 227.1C197.7 254.6 156.9 269.4 117.2 282.9C77.5 296.5 38.7 308.8 0 321.1L0 0Z" fill="#acdbe1"></path><path d="M256.9 0C249.2 31.8 241.5 63.5 230.5 95.5C219.5 127.5 205.1 159.6 181.7 181.7C158.2 203.7 125.6 215.5 93.8 226.4C62 237.2 31 247 0 256.9L0 0Z" fill="#93d1d8"></path><path d="M192.7 0C186.9 23.8 181.1 47.6 172.9 71.6C164.6 95.6 153.9 119.7 136.2 136.2C118.6 152.7 94.2 161.6 70.3 169.8C46.5 177.9 23.2 185.3 0 192.7L0 0Z" fill="#78c6d0"></path><path d="M128.4 0C124.6 15.9 120.8 31.8 115.3 47.7C109.7 63.7 102.6 79.8 90.8 90.8C79.1 101.8 62.8 107.8 46.9 113.2C31 118.6 15.5 123.5 0 128.4L0 0Z" fill="#59bcc7"></path><path d="M64.2 0C62.3 7.9 60.4 15.9 57.6 23.9C54.9 31.9 51.3 39.9 45.4 45.4C39.5 50.9 31.4 53.9 23.4 56.6C15.5 59.3 7.7 61.8 0 64.2L0 0Z" fill="#47b7c3"></path></g></svg>